<mxfile host="65bd71144e">
    <diagram id="0ZwW-vUITOqkvyoN0IJ5" name="Page-1">
        <mxGraphModel dx="1074" dy="1959" grid="1" gridSize="10" guides="1" tooltips="1" connect="1" arrows="1" fold="1" page="1" pageScale="1" pageWidth="827" pageHeight="1169" background="#ffffff" math="0" shadow="0">
            <root>
                <mxCell id="0"/>
                <mxCell id="1" parent="0"/>
                <mxCell id="4" style="edgeStyle=none;html=1;entryX=0.5;entryY=0;entryDx=0;entryDy=0;fontSize=18;strokeColor=#050505;strokeWidth=3;" parent="1" source="2" target="3" edge="1">
                    <mxGeometry relative="1" as="geometry"/>
                </mxCell>
                <mxCell id="2" value="&lt;span style=&quot;font-size: 18px&quot;&gt;机器人开始运动&lt;/span&gt;" style="ellipse;whiteSpace=wrap;html=1;fillColor=#FAFAFA;fontColor=#030303;strokeWidth=3;strokeColor=#030303;" parent="1" vertex="1">
                    <mxGeometry x="90" y="80" width="140" height="80" as="geometry"/>
                </mxCell>
                <mxCell id="3" value="&lt;font style=&quot;font-size: 16px&quot;&gt;运动到&lt;br&gt;检测点位 1&lt;/font&gt;" style="rounded=1;whiteSpace=wrap;html=1;fontSize=12;arcSize=20;fillColor=#FAFAFA;strokeColor=#030303;fontColor=#030303;strokeWidth=3;" parent="1" vertex="1">
                    <mxGeometry x="100" y="260" width="120" height="60" as="geometry"/>
                </mxCell>
                <mxCell id="5" value="&lt;span style=&quot;font-size: 16px&quot;&gt;相机开始拍照&lt;/span&gt;" style="rounded=1;whiteSpace=wrap;html=1;fontSize=12;arcSize=20;fillColor=#FAFAFA;strokeColor=#030303;fontColor=#030303;strokeWidth=3;" parent="1" vertex="1">
                    <mxGeometry x="100" y="390" width="120" height="60" as="geometry"/>
                </mxCell>
                <mxCell id="6" value="&lt;span style=&quot;font-size: 18px&quot;&gt;检测算法模块&lt;/span&gt;" style="ellipse;whiteSpace=wrap;html=1;fillColor=#FAFAFA;fontColor=#030303;strokeWidth=3;strokeColor=#0000F5;" parent="1" vertex="1">
                    <mxGeometry x="320" y="80" width="140" height="80" as="geometry"/>
                </mxCell>
                <mxCell id="8" value="&lt;font style=&quot;font-size: 16px&quot;&gt;调用对应算法A进行计算&lt;/font&gt;" style="rounded=1;whiteSpace=wrap;html=1;fontSize=12;arcSize=20;fillColor=#FAFAFA;strokeColor=#0000F5;fontColor=#030303;strokeWidth=3;" parent="1" vertex="1">
                    <mxGeometry x="330" y="390" width="120" height="60" as="geometry"/>
                </mxCell>
                <mxCell id="9" style="edgeStyle=none;html=1;entryX=0.5;entryY=0;entryDx=0;entryDy=0;fontSize=18;strokeColor=#050505;strokeWidth=3;exitX=0.5;exitY=1;exitDx=0;exitDy=0;" parent="1" source="3" target="5" edge="1">
                    <mxGeometry relative="1" as="geometry">
                        <mxPoint x="210" y="300" as="sourcePoint"/>
                        <mxPoint x="210" y="400" as="targetPoint"/>
                    </mxGeometry>
                </mxCell>
                <mxCell id="10" style="edgeStyle=none;html=1;entryX=0.5;entryY=0;entryDx=0;entryDy=0;fontSize=18;strokeColor=#0000F5;strokeWidth=3;exitX=0.5;exitY=1;exitDx=0;exitDy=0;exitPerimeter=0;" parent="1" source="6" target="8" edge="1">
                    <mxGeometry relative="1" as="geometry">
                        <mxPoint x="390" y="170" as="sourcePoint"/>
                        <mxPoint x="310" y="300" as="targetPoint"/>
                    </mxGeometry>
                </mxCell>
                <mxCell id="11" style="edgeStyle=none;html=1;entryX=0;entryY=0.5;entryDx=0;entryDy=0;fontSize=18;strokeColor=#050505;strokeWidth=3;exitX=1;exitY=0.5;exitDx=0;exitDy=0;" parent="1" source="5" target="8" edge="1">
                    <mxGeometry relative="1" as="geometry">
                        <mxPoint x="300" y="250" as="sourcePoint"/>
                        <mxPoint x="300" y="350" as="targetPoint"/>
                    </mxGeometry>
                </mxCell>
                <mxCell id="29" value="&lt;ol style=&quot;font-size: 16px&quot;&gt;&lt;li&gt;&lt;font style=&quot;font-size: 16px&quot;&gt;算法 A&lt;/font&gt;&lt;/li&gt;&lt;li&gt;算法 C&lt;/li&gt;&lt;li&gt;……&lt;/li&gt;&lt;li&gt;算法 Z&lt;/li&gt;&lt;/ol&gt;" style="text;strokeColor=#050505;fillColor=none;html=1;whiteSpace=wrap;verticalAlign=middle;overflow=hidden;strokeWidth=3;fontColor=#050505;" vertex="1" parent="1">
                    <mxGeometry x="570" y="80" width="130" height="130" as="geometry"/>
                </mxCell>
                <mxCell id="30" value="&lt;span style=&quot;font-size: 18px&quot;&gt;检测算法模块&lt;/span&gt;" style="ellipse;whiteSpace=wrap;html=1;fillColor=#FAFAFA;fontColor=#030303;strokeWidth=3;strokeColor=#0000F5;" vertex="1" parent="1">
                    <mxGeometry x="520" y="660" width="140" height="80" as="geometry"/>
                </mxCell>
                <mxCell id="31" value="&lt;font style=&quot;font-size: 16px&quot;&gt;存储计算结果和误差&lt;/font&gt;" style="rounded=1;whiteSpace=wrap;html=1;fontSize=12;arcSize=20;fillColor=#FAFAFA;strokeColor=#0000F5;fontColor=#030303;strokeWidth=3;" vertex="1" parent="1">
                    <mxGeometry x="540" y="390" width="120" height="60" as="geometry"/>
                </mxCell>
                <mxCell id="32" value="&lt;span style=&quot;font-size: 16px&quot;&gt;相机结束拍照&lt;/span&gt;&lt;span style=&quot;color: rgba(0 , 0 , 0 , 0) ; font-family: monospace ; font-size: 0px&quot;&gt;%3CmxGraphModel%3E%3Croot%3E%3CmxCell%20id%3D%220%22%2F%3E%3CmxCell%20id%3D%221%22%20parent%3D%220%22%2F%3E%3CmxCell%20id%3D%222%22%20value%3D%22%26lt%3Bspan%20style%3D%26quot%3Bfont-size%3A%2016px%26quot%3B%26gt%3B%E7%9B%B8%E6%9C%BA%E5%BC%80%E5%A7%8B%E6%8B%8D%E7%85%A7%26lt%3B%2Fspan%26gt%3B%22%20style%3D%22rounded%3D1%3BwhiteSpace%3Dwrap%3Bhtml%3D1%3BfontSize%3D12%3BarcSize%3D20%3BfillColor%3D%23FAFAFA%3BstrokeColor%3D%23030303%3BfontColor%3D%23030303%3BstrokeWidth%3D3%3B%22%20vertex%3D%221%22%20parent%3D%221%22%3E%3CmxGeometry%20x%3D%22100%22%20y%3D%22390%22%20width%3D%22120%22%20height%3D%2260%22%20as%3D%22geometry%22%2F%3E%3C%2FmxCell%3E%3C%2Froot%3E%3C%2FmxGraphModel%3E&lt;/span&gt;" style="rounded=1;whiteSpace=wrap;html=1;fontSize=12;arcSize=20;fillColor=#FAFAFA;strokeColor=#030303;fontColor=#030303;strokeWidth=3;" vertex="1" parent="1">
                    <mxGeometry x="100" y="510" width="120" height="60" as="geometry"/>
                </mxCell>
                <mxCell id="33" value="&lt;span style=&quot;font-size: 16px&quot;&gt;检测点位是否走完？&lt;/span&gt;" style="rounded=1;whiteSpace=wrap;html=1;fontSize=12;arcSize=20;fillColor=#FAFAFA;strokeColor=#030303;fontColor=#030303;strokeWidth=3;" vertex="1" parent="1">
                    <mxGeometry x="100" y="640" width="120" height="60" as="geometry"/>
                </mxCell>
                <mxCell id="34" value="&lt;span style=&quot;font-size: 18px&quot;&gt;&lt;b&gt;开始&lt;/b&gt;&lt;/span&gt;" style="ellipse;whiteSpace=wrap;html=1;fillColor=#FAFAFA;fontColor=#030303;strokeWidth=3;strokeColor=#F50C1C;" vertex="1" parent="1">
                    <mxGeometry x="210" y="-40" width="140" height="80" as="geometry"/>
                </mxCell>
                <mxCell id="35" style="edgeStyle=none;html=1;entryX=0.5;entryY=0;entryDx=0;entryDy=0;fontSize=18;strokeColor=#050505;strokeWidth=3;exitX=0;exitY=1;exitDx=0;exitDy=0;" edge="1" parent="1" source="34" target="2">
                    <mxGeometry relative="1" as="geometry">
                        <mxPoint x="300" y="150" as="sourcePoint"/>
                        <mxPoint x="300" y="250" as="targetPoint"/>
                    </mxGeometry>
                </mxCell>
                <mxCell id="36" style="edgeStyle=none;html=1;entryX=0.5;entryY=0;entryDx=0;entryDy=0;fontSize=18;strokeColor=#050505;strokeWidth=3;exitX=1;exitY=1;exitDx=0;exitDy=0;" edge="1" parent="1" source="34" target="6">
                    <mxGeometry relative="1" as="geometry">
                        <mxPoint x="240.5025253169415" y="38.28427124746213" as="sourcePoint"/>
                        <mxPoint x="170" y="90" as="targetPoint"/>
                    </mxGeometry>
                </mxCell>
                <mxCell id="37" style="edgeStyle=none;html=1;entryX=0.5;entryY=0;entryDx=0;entryDy=0;fontSize=18;strokeColor=#050505;strokeWidth=3;exitX=0.5;exitY=1;exitDx=0;exitDy=0;" edge="1" parent="1" source="5" target="32">
                    <mxGeometry relative="1" as="geometry">
                        <mxPoint x="260" y="340" as="sourcePoint"/>
                        <mxPoint x="260" y="410" as="targetPoint"/>
                    </mxGeometry>
                </mxCell>
                <mxCell id="38" style="edgeStyle=none;html=1;fontSize=18;strokeColor=#050505;strokeWidth=3;exitX=0;exitY=0.5;exitDx=0;exitDy=0;endArrow=none;endFill=0;" edge="1" parent="1" source="33">
                    <mxGeometry relative="1" as="geometry">
                        <mxPoint x="170" y="460" as="sourcePoint"/>
                        <mxPoint x="50" y="670" as="targetPoint"/>
                    </mxGeometry>
                </mxCell>
                <mxCell id="39" style="edgeStyle=none;html=1;fontSize=18;strokeColor=#050505;strokeWidth=3;endArrow=none;endFill=0;" edge="1" parent="1">
                    <mxGeometry relative="1" as="geometry">
                        <mxPoint x="50" y="670" as="sourcePoint"/>
                        <mxPoint x="50" y="120" as="targetPoint"/>
                    </mxGeometry>
                </mxCell>
                <mxCell id="40" style="edgeStyle=none;html=1;fontSize=18;strokeColor=#050505;strokeWidth=3;entryX=0;entryY=0.5;entryDx=0;entryDy=0;" edge="1" parent="1" target="2">
                    <mxGeometry relative="1" as="geometry">
                        <mxPoint x="50" y="120" as="sourcePoint"/>
                        <mxPoint x="170" y="270" as="targetPoint"/>
                    </mxGeometry>
                </mxCell>
                <mxCell id="41" style="edgeStyle=none;html=1;entryX=0.5;entryY=0;entryDx=0;entryDy=0;fontSize=18;strokeColor=#050505;strokeWidth=3;exitX=0.5;exitY=1;exitDx=0;exitDy=0;" edge="1" parent="1" source="32" target="33">
                    <mxGeometry relative="1" as="geometry">
                        <mxPoint x="219" y="580" as="sourcePoint"/>
                        <mxPoint x="219" y="640" as="targetPoint"/>
                    </mxGeometry>
                </mxCell>
                <mxCell id="42" value="&lt;span style=&quot;font-size: 16px&quot;&gt;计算是否完成&lt;/span&gt;" style="rounded=1;whiteSpace=wrap;html=1;fontSize=12;arcSize=20;fillColor=#FAFAFA;strokeColor=#0000F5;fontColor=#030303;strokeWidth=3;" vertex="1" parent="1">
                    <mxGeometry x="330" y="640" width="120" height="60" as="geometry"/>
                </mxCell>
            </root>
        </mxGraphModel>
    </diagram>
</mxfile>